<svg width="40" height="40" viewBox="0 0 40 40" fill="none" xmlns="http://www.w3.org/2000/svg">
<circle cx="20" cy="20" r="20" fill="#B4B745" fill-opacity="0.35"/>
<g style="mix-blend-mode:color-dodge">
<path d="M29.1585 15.3273C29.0307 15.2492 28.8852 15.2046 28.7356 15.1976C28.586 15.1906 28.437 15.2214 28.3024 15.2872C26.773 16.0318 23.5136 16.5267 20 16.5267C16.4864 16.5267 13.227 16.0318 11.6976 15.2872C11.563 15.2214 11.4141 15.1906 11.2644 15.1976C11.1148 15.2046 10.9694 15.2492 10.8415 15.3273C10.7182 15.4041 10.6166 15.5113 10.5463 15.6385C10.4761 15.7657 10.4395 15.9088 10.4402 16.0541V23.7189C10.4402 25.3196 15.345 26.1801 20 26.1801C24.6551 26.1801 29.5598 25.3151 29.5598 23.7189V16.0541C29.5605 15.9088 29.524 15.7657 29.4537 15.6385C29.3835 15.5113 29.2818 15.4041 29.1585 15.3273V15.3273ZM29.1139 23.7189C29.1139 24.673 25.3729 25.7343 20 25.7343C14.6271 25.7343 10.8861 24.673 10.8861 23.7189V16.0541C10.8856 15.9845 10.9029 15.916 10.9365 15.8551C10.9701 15.7942 11.0188 15.743 11.0778 15.7063C11.1467 15.6654 11.2252 15.6439 11.3052 15.6439C11.3732 15.6436 11.4403 15.6588 11.5014 15.6885C13.1111 16.4777 16.366 16.9726 20 16.9726C23.634 16.9726 26.8889 16.4777 28.4986 15.6885C28.5664 15.6493 28.6433 15.6287 28.7215 15.6287C28.7998 15.6287 28.8767 15.6493 28.9445 15.6885C29.0036 15.7251 29.0522 15.7764 29.0858 15.8373C29.1194 15.8982 29.1367 15.9667 29.1362 16.0362L29.1139 23.7189Z" fill="#B4B745" fill-opacity="0.7"/>
<path d="M29.7738 9.37919V8.54984C29.7738 6.82427 25.3417 5.80319 20.9497 5.6828C20.5653 5.18185 20.1306 4.72166 19.6522 4.30947L19.5809 4.24705C19.509 4.17683 19.4315 4.1127 19.349 4.05532C19.2924 4.01919 19.2267 4 19.1595 4C19.0924 4 19.0266 4.01919 18.97 4.05532C18.9233 4.08883 18.888 4.13587 18.8688 4.19009C18.8497 4.24431 18.8477 4.3031 18.863 4.35852C18.9645 4.79675 18.9917 5.24894 18.9433 5.69618C14.578 5.82994 10.2217 6.84656 10.2217 8.55876V9.38811C9.44589 9.94547 9 10.5875 9 11.2475V31.7939C9 34.0456 13.8334 35.8068 20 35.8068C26.1666 35.8068 31 34.0233 31 31.7939V11.2475C31 10.5875 30.5719 9.94547 29.7738 9.37919ZM29.3279 8.54984C29.3279 8.8798 29.0069 9.21421 28.4362 9.53079C26.3545 8.58607 24.1117 8.04731 21.8281 7.94344C21.8291 7.785 21.8156 7.62681 21.788 7.4708C21.6932 6.99659 21.5134 6.54342 21.2574 6.13314C26.2513 6.32042 29.3279 7.51093 29.3279 8.54984ZM12.0766 9.78941C14.0133 8.97323 16.0774 8.50095 18.1763 8.39378C18.1761 8.62367 18.2306 8.85032 18.3352 9.055C18.4399 9.25968 18.5918 9.43653 18.7783 9.57092C19.075 9.77034 19.4201 9.88588 19.7771 9.90534V10.9844C16.3705 10.9576 13.6283 10.4449 12.0766 9.78941ZM21.7925 8.38933C23.9021 8.49521 25.9769 8.96904 27.9234 9.78941C26.3672 10.4538 23.6295 10.9665 20.2229 10.9888V9.8875C20.6477 9.8366 21.0432 9.64512 21.3466 9.34352C21.5879 9.07759 21.7433 8.74502 21.7925 8.38933ZM19.2554 6.33379C19.4098 5.79036 19.4448 5.21995 19.3579 4.66172C20.1159 5.33055 21.1192 6.32933 21.351 7.55998C21.4093 7.81317 21.4116 8.07604 21.3577 8.3302C21.3038 8.58436 21.195 8.82368 21.0389 9.0314C20.8208 9.24784 20.5399 9.38985 20.2363 9.43716V9.06261C20.2363 9.00349 20.2128 8.94678 20.171 8.90497C20.1292 8.86316 20.0725 8.83967 20.0134 8.83967C19.9542 8.83967 19.8975 8.86316 19.8557 8.90497C19.8139 8.94678 19.7904 9.00349 19.7904 9.06261V9.45945C19.5239 9.43959 19.2672 9.35044 19.0458 9.20084C18.3814 8.75495 18.6713 7.74279 18.8229 7.33704C18.8797 7.19491 18.9452 7.05642 19.0191 6.92236C19.1162 6.73406 19.1953 6.53699 19.2554 6.33379V6.33379ZM18.8452 6.1376C18.8452 6.1376 18.8452 6.18219 18.8452 6.20449C18.7842 6.38233 18.7066 6.55402 18.6133 6.71725C18.5317 6.86143 18.4587 7.01032 18.3948 7.16314C18.3 7.4091 18.2327 7.66482 18.1942 7.9256C15.9019 8.03304 13.6514 8.57789 11.5638 9.53079C10.9931 9.21421 10.6721 8.87534 10.6721 8.54984C10.6676 7.50201 13.7933 6.30258 18.8585 6.1376H18.8452ZM10.6676 10.3824C11.3855 10.8907 13.1601 11.8762 16.4106 12.0902C16.4697 12.0902 16.5265 12.0667 16.5683 12.0249C16.6101 11.9831 16.6336 11.9264 16.6336 11.8672C16.6336 11.8081 16.6101 11.7514 16.5683 11.7096C16.5265 11.6678 16.4697 11.6443 16.4106 11.6443C12.7276 11.3946 11.0065 10.1015 10.6676 9.81616V9.45945C12.0053 10.7436 16.0985 11.4303 20 11.4303C23.9015 11.4303 27.9992 10.7436 29.3324 9.45945V10.0346C29.0559 10.2799 27.8476 11.2296 25.3818 11.6844C25.3227 11.6897 25.2681 11.7183 25.2301 11.7639C25.192 11.8095 25.1736 11.8683 25.179 11.9274C25.1843 11.9866 25.2129 12.0411 25.2584 12.0792C25.304 12.1172 25.3628 12.1356 25.422 12.1303H25.4621C26.846 11.9214 28.1655 11.4049 29.3235 10.6188C29.2521 11.7602 25.4487 13.0221 20 13.0221C14.5513 13.0221 10.6676 11.729 10.6676 10.5786V10.3824ZM30.5497 31.7849C30.5497 33.7201 25.7163 35.352 19.9955 35.352C14.2748 35.352 9.44589 33.729 9.44589 31.7939V12.4023C10.7835 14.0744 14.9347 15.2649 20 15.2649C25.0653 15.2649 29.2254 14.0744 30.5541 12.4023L30.5497 31.7849ZM20 14.8235C14.2793 14.8235 9.44589 13.1871 9.44589 11.2475C9.47306 10.9859 9.55647 10.7334 9.69038 10.5071C9.82429 10.2808 10.0056 10.0862 10.2217 9.93655V10.5742C10.2217 12.4469 15.2602 13.4546 20 13.4546C24.7398 13.4546 29.7738 12.4647 29.7738 10.5786V9.93655C29.99 10.0862 30.1712 10.2808 30.3052 10.5071C30.4391 10.7334 30.5225 10.9859 30.5497 11.2475C30.5541 13.1871 25.7207 14.8235 20 14.8235Z" fill="#B4B745" fill-opacity="0.7"/>
</g>
</svg>
