<svg width="36" height="33" viewBox="0 0 36 33" fill="none" xmlns="http://www.w3.org/2000/svg">
<circle cx="16" cy="16" r="16" fill="#B4B745" fill-opacity="0.35"/>
<g filter="url(#filter0_d)">
<path d="M27.362 10.398C26.3936 8.63299 24.3963 7.40887 22.1267 7.40887C21.2189 7.40887 20.3413 7.60815 19.5545 7.97823L19.5242 8.0067C19.4637 8.03516 19.3729 8.06363 19.3124 8.12057L14.8034 10.3126V10.6542L13.1693 11.3944L12.7153 11.3374L7.26825 14.0134C5.33151 14.8959 4 16.7748 4 18.9668C4 22.0128 6.63276 24.4895 9.87075 24.4895C10.6878 24.4895 11.4746 24.3472 12.1706 24.0625C12.443 23.9486 12.7153 23.8063 12.9574 23.6639L24.3661 18.0558C24.6687 17.9419 24.9713 17.7711 25.2739 17.6288H25.3042C26.2423 17.0594 26.9988 16.2623 27.483 15.2944L27.1501 15.209L27.7251 13.7856L27.9672 13.6433C27.9975 13.4156 27.9975 13.1878 27.9975 12.9601C28.0277 12.0206 27.7856 11.1666 27.362 10.398ZM11.5654 13.3017L20.0084 9.23081C20.0992 9.20234 20.19 9.23081 20.2505 9.31621C20.2807 9.40161 20.2505 9.48702 20.1597 9.54395L11.747 13.5864C11.7167 13.5864 11.6865 13.6148 11.6562 13.6148C11.5957 13.6148 11.5351 13.5864 11.5049 13.5294C11.4444 13.4156 11.5049 13.3302 11.5654 13.3017ZM9.87075 23.5785C7.14721 23.5785 4.93811 21.5004 4.93811 18.9383C4.93811 16.3762 7.14721 14.2981 9.87075 14.2981C11.3838 14.2981 12.7153 14.9244 13.6232 15.9207L13.1693 16.7463L14.1376 16.6039C14.5613 17.2872 14.8034 18.0843 14.8034 18.9098C14.8034 21.5004 12.5943 23.5785 9.87075 23.5785ZM16.6494 15.209C16.5586 15.209 16.4678 15.1521 16.4375 15.0952C16.377 14.9813 16.4375 14.8389 16.5586 14.782L25.0016 10.7111C25.1226 10.6542 25.2739 10.7111 25.3344 10.825C25.395 10.9389 25.3344 11.0812 25.2134 11.1381L16.7704 15.1806C16.7401 15.209 16.7099 15.209 16.6494 15.209ZM24.0029 17.9989C23.8214 18.0843 23.6398 18.1412 23.428 18.1412C23.3674 18.1412 23.3069 18.1412 23.2464 18.1412C23.0043 18.1127 22.7925 17.9704 22.7017 17.7996C22.6714 17.7427 22.7017 17.6857 22.7319 17.6573C22.7925 17.6288 22.853 17.6573 22.8832 17.6857C22.974 17.8281 23.0951 17.9135 23.2766 17.9419C23.4582 17.9704 23.7003 17.9419 23.8819 17.8281C24.2753 17.6288 24.4569 17.2587 24.3358 16.9456C24.3055 16.8886 24.3358 16.8317 24.3963 16.8317C24.4569 16.8032 24.5174 16.8317 24.5174 16.8886C24.7292 17.2872 24.4871 17.7427 24.0029 17.9989ZM23.3069 16.7178C23.5793 16.5755 23.9121 16.6324 24.0332 16.8317C24.1542 17.031 24.0332 17.3156 23.7306 17.458C23.4582 17.6003 23.1253 17.5434 23.0043 17.3441C22.8832 17.1448 23.0043 16.8602 23.3069 16.7178ZM25.6068 14.2411L17.1638 18.312C17.1335 18.312 17.1033 18.3405 17.073 18.3405C17.0125 18.3405 16.952 18.312 16.9217 18.2551C16.8914 18.1697 16.9217 18.0843 17.0125 18.0273L25.4555 13.9564C25.5463 13.928 25.6371 13.9564 25.6976 14.0419C25.7278 14.0988 25.6976 14.2127 25.6068 14.2411Z" fill="#B4B745" fill-opacity="0.7"/>
</g>
<defs>
<filter id="filter0_d" x="4" y="7.40887" width="32" height="25.0806" filterUnits="userSpaceOnUse" color-interpolation-filters="sRGB">
<feFlood flood-opacity="0" result="BackgroundImageFix"/>
<feColorMatrix in="SourceAlpha" type="matrix" values="0 0 0 0 0 0 0 0 0 0 0 0 0 0 0 0 0 0 127 0"/>
<feOffset dx="4" dy="4"/>
<feGaussianBlur stdDeviation="2"/>
<feColorMatrix type="matrix" values="0 0 0 0 0 0 0 0 0 0 0 0 0 0 0 0 0 0 0.9 0"/>
<feBlend mode="normal" in2="BackgroundImageFix" result="effect1_dropShadow"/>
<feBlend mode="normal" in="SourceGraphic" in2="effect1_dropShadow" result="shape"/>
</filter>
</defs>
</svg>
