<svg width="155" height="49" viewBox="0 0 155 49" fill="none" xmlns="http://www.w3.org/2000/svg">
<path d="M15.4637 9.6014C14.5884 9.98278 13.3962 11.8736 11.887 15.2739C10.3671 18.628 9.67145 20.5818 9.79992 21.1353C9.82134 21.2276 9.88254 21.2517 9.98354 21.2077C10.7242 20.885 11.9264 19.1168 13.59 15.9032C15.2874 12.6749 16.0397 10.6456 15.847 9.81533C15.7935 9.5847 15.6657 9.51339 15.4637 9.6014ZM9.84639 36.4285C7.25411 37.5579 5.45478 35.9548 4.4484 31.6189C3.81674 28.8975 4.00609 25.6406 5.01645 21.8482C6.04977 17.995 7.51991 14.5863 9.42687 11.6222C11.3231 8.61201 13.1802 6.71085 14.9982 5.91875C15.8062 5.5667 16.6485 5.68219 17.5253 6.26521C18.4357 6.83357 18.9872 7.53288 19.1799 8.36314C19.5333 9.8853 19.1436 11.9597 18.0109 14.5864C16.8676 17.167 15.5598 19.4383 14.0875 21.4004C12.6382 23.3016 11.6274 24.3769 11.0551 24.6263C10.5164 24.861 10.0321 24.6911 9.60219 24.1165C9.43541 24.0368 9.23418 24.0483 8.99852 24.151C8.76286 24.2537 8.52023 25.0451 8.27064 26.5252C8.01035 27.9591 7.9712 29.0682 8.15321 29.8523C8.32451 30.5904 8.63356 30.9636 9.08038 30.9721C11.639 29.8573 14.1809 27.6323 16.7061 24.2973C19.2206 20.9161 22.5211 15.491 26.6076 8.02195C26.8922 7.49158 27.3192 6.69604 27.8886 5.63532C28.4916 4.55992 28.8444 3.9237 28.947 3.72665C29.3249 3.91752 29.5674 4.24358 29.6745 4.70484C29.7815 5.1661 29.7264 5.64724 29.509 6.14826C28.361 9.18799 26.7723 12.7245 24.7428 16.7578C22.747 20.7764 20.315 24.8327 17.447 28.9266C14.5682 32.9744 12.0347 35.475 9.84639 36.4285Z" fill="#F9F4F4" fill-opacity="0.8"/>
<path d="M100.048 38.9154C100.547 38.4362 101.156 38.1966 101.877 38.1966C102.46 38.1966 103.005 38.4144 103.514 38.85C104.044 39.3437 104.415 40.1787 104.627 41.3548L103.753 41.6816C103.583 40.8539 103.35 40.244 103.053 39.852C102.767 39.4599 102.391 39.2639 101.924 39.2639C101.172 39.2639 100.605 39.6414 100.223 40.3965C99.8418 41.1516 99.6511 42.2116 99.6511 43.5765C99.6511 44.9124 99.8206 45.9579 100.16 46.713C100.51 47.5261 101.061 47.9327 101.813 47.9327C102.788 47.9327 103.445 47.1486 103.784 45.5803L104.595 45.9071C104.426 46.9671 104.06 47.7657 103.498 48.303C103 48.7676 102.433 49 101.797 49C100.769 49 99.9743 48.5208 99.4126 47.5624C98.8615 46.5895 98.5859 45.2682 98.5859 43.5983C98.5859 41.4057 99.0735 39.8447 100.048 38.9154Z" fill="#D5D5D5" fill-opacity="0.81"/>
<path d="M112.291 47.5842C111.443 48.528 110.542 49 109.588 49C108.942 49 108.412 48.7604 107.998 48.2812C107.596 47.802 107.394 47.1341 107.394 46.2773C107.394 45.6384 107.532 45.0649 107.808 44.5566C107.988 44.2227 108.359 43.896 108.92 43.5765C109.238 43.4168 109.774 43.2425 110.526 43.0538C110.653 43.0102 110.976 42.9376 111.496 42.8359L112.227 42.7053V42.2696C112.227 41.1516 112.095 40.382 111.83 39.9609C111.565 39.5252 111.104 39.3074 110.447 39.3074C109.546 39.3074 108.841 39.743 108.332 40.6143C108.332 40.5998 108.12 40.3239 107.696 39.7866C108.311 38.7266 109.249 38.1966 110.51 38.1966C112.354 38.1966 113.276 39.4454 113.276 41.9429V48.7604H112.402L112.291 47.5842ZM112.227 43.6418L111.496 43.8161C110.701 44.0049 110.134 44.1501 109.795 44.2517C109.36 44.4114 109.011 44.6365 108.746 44.9269C108.502 45.1883 108.38 45.5731 108.38 46.0813C108.38 47.3737 108.846 48.0198 109.779 48.0198C110.563 48.0198 111.379 47.5261 112.227 46.5387V43.6418Z" fill="#D5D5D5" fill-opacity="0.81"/>
<path d="M116.768 48.7604V38.4144H117.786V38.7411V39.3728V40.0915V40.3747C117.987 39.6341 118.358 39.0751 118.898 38.6976C119.407 38.3636 119.916 38.1966 120.425 38.1966C120.997 38.1966 121.463 38.3491 121.824 38.654C122.195 38.9735 122.449 39.3437 122.587 39.7648C122.746 40.2731 122.852 40.774 122.905 41.2677C122.926 41.6743 122.936 41.9357 122.936 42.0518V42.8577V48.7604H121.903V42.6835C121.903 41.8703 121.839 41.1806 121.712 40.6143C121.575 40.077 121.32 39.714 120.949 39.5252C120.769 39.4236 120.541 39.3728 120.266 39.3728C119.534 39.3728 118.973 39.6414 118.581 40.1787C118.241 40.6433 118.008 41.3548 117.881 42.3132C117.828 42.7779 117.802 43.2425 117.802 43.7072V48.7604H116.768Z" fill="#D5D5D5" fill-opacity="0.81"/>
<path d="M130.327 47.5189C130.73 47.1994 131.016 46.5605 131.186 45.6021C131.27 45.0503 131.313 44.4187 131.313 43.7072C131.313 41.8631 131.005 40.578 130.391 39.852C130.052 39.4599 129.633 39.2639 129.135 39.2639C128.51 39.2639 128.022 39.6704 127.672 40.4836C127.333 41.2822 127.164 42.3713 127.164 43.7507C127.164 44.9995 127.344 46.0087 127.704 46.7783C128.064 47.5479 128.547 47.9327 129.151 47.9327C129.606 47.9327 129.999 47.7947 130.327 47.5189ZM128.976 38.1966C130.12 38.1966 130.889 38.8137 131.281 40.048V33.8622H132.33V48.7604H131.488L131.345 47.0179C131.154 47.6278 130.846 48.1142 130.423 48.4772C130.009 48.8257 129.538 49 129.008 49C128.117 49 127.407 48.5208 126.877 47.5624C126.358 46.6041 126.098 45.319 126.098 43.7072C126.098 41.9937 126.348 40.6506 126.846 39.6777C127.354 38.6903 128.064 38.1966 128.976 38.1966Z" fill="#D5D5D5" fill-opacity="0.81"/>
<path d="M135.877 48.7604V33.8622H136.926V48.7604H135.877Z" fill="#D5D5D5" fill-opacity="0.81"/>
<path d="M145.5 42.727C145.479 40.4183 144.806 39.2639 143.481 39.2639C142.803 39.2639 142.294 39.6051 141.955 40.2876C141.616 40.9265 141.414 41.7396 141.351 42.727H145.5ZM145.802 39.6124C146.268 40.5126 146.502 41.667 146.502 43.0755C146.502 43.3514 146.496 43.5475 146.486 43.6636H141.335C141.335 44.8979 141.504 45.8925 141.844 46.6476C142.215 47.5043 142.782 47.9327 143.545 47.9327C144.53 47.9327 145.166 47.3373 145.452 46.1467L146.263 46.408C146.146 46.9598 145.945 47.439 145.659 47.8456C145.383 48.2522 145.065 48.5426 144.705 48.7168C144.377 48.8765 144 48.9709 143.576 49H143.545C142.421 49 141.584 48.4482 141.033 47.3446C140.524 46.3572 140.27 45.1012 140.27 43.5765C140.27 41.9502 140.556 40.6506 141.128 39.6777C141.711 38.6903 142.506 38.1966 143.513 38.1966C144.541 38.1966 145.304 38.6685 145.802 39.6124Z" fill="#D5D5D5" fill-opacity="0.81"/>
<path d="M154.221 40.7668C153.924 39.7793 153.294 39.2856 152.329 39.2856C151.089 39.2856 150.469 39.8883 150.469 41.0935C150.469 41.5291 150.591 41.8848 150.835 42.1607C151.026 42.4076 151.349 42.5891 151.805 42.7053C151.974 42.7779 152.186 42.8432 152.441 42.9013C153.32 43.1191 153.967 43.4603 154.38 43.925C154.793 44.3751 155 45.0213 155 45.8635C155 47.9545 154.004 49 152.011 49C151.375 49 150.819 48.8257 150.342 48.4772C149.791 48.0706 149.42 47.4027 149.229 46.4734L150.024 46.0595C150.204 46.713 150.453 47.1849 150.771 47.4753C151.1 47.7657 151.55 47.9109 152.123 47.9109C153.405 47.9109 154.046 47.3228 154.046 46.1467C154.046 45.5077 153.898 45.0503 153.601 44.7745C153.304 44.5131 152.684 44.2517 151.741 43.9903C151.264 43.8451 150.824 43.6346 150.422 43.3587C150.051 43.1264 149.78 42.7125 149.611 42.1172C149.526 41.7977 149.484 41.4492 149.484 41.0717C149.484 40.1859 149.738 39.4889 150.247 38.9807C150.755 38.458 151.428 38.1966 152.266 38.1966C152.955 38.1966 153.506 38.3563 153.919 38.6758C154.343 38.9807 154.682 39.4962 154.936 40.2222L154.221 40.7668Z" fill="#D5D5D5" fill-opacity="0.81"/>
<path d="M33.002 31.8573C31.6666 31.8573 30.628 31.3927 29.8861 30.4634C29.1654 29.505 28.8051 28.1691 28.8051 26.4557V11.906H26.8974V10.6862C28.148 10.4539 29.1337 9.74239 29.8543 8.55169C30.5962 7.361 30.9671 5.80729 30.9671 3.89056V2.32233H32.4933V10.6862H35.7363V11.906H32.4933V26.7606C32.4933 27.719 32.5887 28.4886 32.7794 29.0694C32.9702 29.6502 33.3623 29.9406 33.9558 29.9406C34.8461 29.9406 35.4396 29.1129 35.7363 27.4576C36.0331 25.7732 36.1815 23.9 36.1815 21.8381H37.0717C37.0717 23.4934 36.9869 25.0181 36.8173 26.4121C36.669 27.8061 36.4252 28.8806 36.0861 29.6357C35.4078 31.1168 34.3798 31.8573 33.002 31.8573Z" fill="#F9F4F4" fill-opacity="0.8"/>
<path d="M41.8491 30.2891H43.6296C43.8204 30.2891 43.9475 30.2455 44.0111 30.1584C44.0959 30.0423 44.1383 29.8535 44.1383 29.5921V2.06096C44.1383 1.79959 44.0959 1.62534 44.0111 1.53822C43.9475 1.42205 43.8204 1.36397 43.6296 1.36397H41.8491V0.318481H47.8265V14.5632L47.9854 14.6068C48.4094 13.2419 48.9499 12.1673 49.607 11.3832C50.2853 10.5701 51.0589 10.1635 51.928 10.1635C52.4579 10.1635 52.9136 10.2506 53.2951 10.4249C53.6767 10.5701 54.037 10.8024 54.3762 11.1218C54.9061 11.6446 55.3194 12.3706 55.6161 13.2999C55.9341 14.2293 56.0931 15.1876 56.0931 16.175V29.5921C56.0931 29.8535 56.1249 30.0423 56.1885 30.1584C56.2732 30.2455 56.411 30.2891 56.6018 30.2891H57.81V31.3346H50.8788V30.2891H51.8962C52.0869 30.2891 52.2141 30.2455 52.2777 30.1584C52.3625 30.0423 52.4049 29.8535 52.4049 29.5921V14.9117C52.4049 12.6756 51.9174 11.5575 50.9423 11.5575C50.4972 11.5575 50.0309 11.964 49.5434 12.7772C49.0559 13.5904 48.6425 14.6649 48.3034 16.0008C47.9854 17.3367 47.8265 18.7597 47.8265 20.2699V29.5921C47.8265 29.8535 47.8583 30.0423 47.9219 30.1584C48.0066 30.2455 48.1444 30.2891 48.3352 30.2891H49.3526V31.3346H41.8491V30.2891Z" fill="#F9F4F4" fill-opacity="0.8"/>
<path d="M67.6526 31.8573C66.4868 31.8573 65.4906 31.4653 64.6639 30.6812C63.8585 29.8971 63.4558 28.5757 63.4558 26.717C63.4558 24.8293 63.9539 23.3482 64.9501 22.2737C65.9675 21.1701 67.2499 20.2553 68.7972 19.5293L71.15 18.3967V15.4345C71.15 13.9534 70.9275 12.8788 70.4824 12.2109C70.0372 11.5429 69.4649 11.209 68.7654 11.209C68.1719 11.209 67.6526 11.3977 67.2075 11.7753C66.7836 12.1238 66.5716 12.6175 66.5716 13.2564C66.5716 13.4306 66.6034 13.6484 66.667 13.9098C66.7518 14.1421 66.8896 14.3454 67.0803 14.5197C67.3983 14.7811 67.6208 15.0569 67.748 15.3474C67.8964 15.6378 67.9706 16.0153 67.9706 16.48C67.9706 17.177 67.7798 17.7287 67.3983 18.1353C67.0379 18.5129 66.6352 18.7016 66.1901 18.7016C65.639 18.7016 65.1621 18.4548 64.7593 17.9611C64.3778 17.4383 64.187 16.6978 64.187 15.7394C64.187 14.6358 64.4308 13.663 64.9183 12.8208C65.4058 11.9495 66.0311 11.2961 66.7942 10.8605C67.5573 10.3958 68.3309 10.1635 69.1152 10.1635C70.6413 10.1635 71.9767 10.7298 73.1213 11.8624C74.2659 12.966 74.8382 14.7375 74.8382 17.177V28.1981C74.8382 29.2436 75.0502 29.7664 75.4741 29.7664C75.8556 29.7664 76.1418 29.3308 76.3326 28.4595C76.5233 27.5883 76.6187 26.5863 76.6187 25.4537H77.509C77.509 27.5738 77.2758 29.1275 76.8095 30.1149C76.5763 30.6376 76.2478 31.0587 75.8238 31.3782C75.3999 31.6976 74.9124 31.8573 74.3613 31.8573C73.4922 31.8573 72.8352 31.6831 72.39 31.3346C71.9449 30.9571 71.574 30.3472 71.2772 29.505H71.2136C70.3658 31.0732 69.1788 31.8573 67.6526 31.8573ZM69.2106 30.1149C70.0372 30.1149 70.6837 29.476 71.15 28.1981V19.5729L69.3695 20.4441C68.6701 20.7926 68.1508 21.4606 67.8116 22.448C67.4937 23.4063 67.3347 24.6987 67.3347 26.325C67.3347 27.748 67.5255 28.7354 67.907 29.2872C68.2885 29.839 68.7231 30.1149 69.2106 30.1149Z" fill="#F9F4F4" fill-opacity="0.8"/>
<path d="M82.5901 30.2891H83.7983C83.9891 30.2891 84.1163 30.2455 84.1799 30.1584C84.2647 30.0423 84.307 29.8535 84.307 29.5921V12.4287C84.307 12.1673 84.2647 11.9931 84.1799 11.906C84.1163 11.7898 83.9891 11.7317 83.7983 11.7317H82.5901V10.6862H87.9952V14.5632L88.1542 14.6068C88.5781 13.2419 89.1186 12.1673 89.7757 11.3832C90.454 10.5701 91.2277 10.1635 92.0967 10.1635C92.6266 10.1635 93.0824 10.2506 93.4639 10.4249C93.8454 10.5701 94.2058 10.8024 94.5449 11.1218C95.0748 11.6446 95.4881 12.3706 95.7849 13.2999C96.1028 14.2293 96.2618 15.1876 96.2618 16.175V29.5921C96.2618 29.8535 96.2936 30.0423 96.3572 30.1584C96.442 30.2455 96.5798 30.2891 96.7705 30.2891H97.9787V31.3346H91.0475V30.2891H92.0649C92.2557 30.2891 92.3829 30.2455 92.4465 30.1584C92.5312 30.0423 92.5736 29.8535 92.5736 29.5921V14.9117C92.5736 12.6756 92.0861 11.5575 91.1111 11.5575C90.666 11.5575 90.1996 11.964 89.7121 12.7772C89.2246 13.5904 88.8113 14.6649 88.4721 16.0008C88.1542 17.3367 87.9952 18.7597 87.9952 20.2699V29.5921C87.9952 29.8535 88.027 30.0423 88.0906 30.1584C88.1754 30.2455 88.3132 30.2891 88.5039 30.2891H89.5214V31.3346H82.5901V30.2891Z" fill="#F9F4F4" fill-opacity="0.8"/>
</svg>
